<?xml version="1.0" standalone="no"?>
<!DOCTYPE svg PUBLIC "-//W3C//DTD SVG 20010904//EN"
 "http://www.w3.org/TR/2001/REC-SVG-20010904/DTD/svg10.dtd">
<svg version="1.0" xmlns="http://www.w3.org/2000/svg"
 width="2000.000000pt" height="2000.000000pt" viewBox="0 0 2000.000000 2000.000000"
 preserveAspectRatio="xMidYMid meet">
<metadata>
Created by potrace 1.11, written by Peter Selinger 2001-2013
</metadata>
<g transform="translate(0.000000,2000.000000) scale(0.100000,-0.100000)"
fill="#000000" stroke="none">
<path d="M0 10000 l0 -10000 10000 0 10000 0 0 10000 0 10000 -10000 0 -10000
0 0 -10000z m17070 8235 l0 -965 23 -4 c74 -16 479 -28 1160 -33 l777 -6 0
-798 0 -799 -567 0 c-313 0 -741 -7 -953 -15 -212 -8 -397 -15 -412 -15 l-28
0 0 -412 c0 -374 -23 -1276 -36 -1405 l-5 -53 -865 0 -864 0 0 935 0 934 -22
13 c-18 10 -227 14 -1000 16 l-978 3 0 798 0 799 948 5 c521 3 963 9 982 14
66 17 64 -20 68 1021 l3 932 885 0 884 0 0 -965z m-11410 -3914 c471 -71 820
-178 1215 -371 422 -207 803 -480 1196 -857 85 -81 194 -181 242 -221 l87 -74
66 59 c37 32 99 94 137 138 199 227 519 487 835 679 225 136 645 339 901 435
648 243 1356 295 1976 146 587 -141 1134 -452 1608 -915 620 -604 1061 -1351
1312 -2220 142 -495 178 -774 178 -1395 0 -481 -22 -743 -82 -976 -136 -529
-429 -1131 -873 -1796 -249 -374 -451 -641 -850 -1124 -465 -564 -705 -828
-1192 -1315 -415 -414 -695 -673 -1121 -1034 -55 -47 -172 -147 -260 -224
-640 -555 -1327 -1060 -1955 -1436 -324 -195 -628 -350 -685 -350 -8 0 -54 17
-102 39 -48 21 -102 41 -119 45 -97 21 -722 407 -1169 721 -1400 983 -3013
2480 -4008 3720 -501 623 -858 1167 -1146 1745 -266 534 -430 1041 -486 1499
-41 338 -40 760 1 1085 141 1099 670 2205 1429 2985 193 198 285 280 439 389
481 343 994 555 1516 626 173 24 174 24 485 21 231 -2 318 -7 425 -24z"/>
<path d="M9825 12518 c-72 -75 -183 -206 -1291 -1528 -912 -1089 -1710 -2052
-2307 -2785 -108 -132 -192 -244 -188 -248 27 -28 597 -48 1524 -54 717 -5
767 -7 753 -22 -9 -9 -26 -46 -40 -81 -102 -272 -747 -1799 -966 -2290 -417
-933 -591 -1349 -607 -1448 -5 -29 -3 -34 13 -30 10 2 106 111 213 243 773
953 3172 3942 3535 4405 l169 215 -40 7 c-96 16 -561 28 -1113 29 -641 0 -985
10 -1002 27 -8 8 21 89 102 284 162 394 387 945 500 1228 54 135 223 547 375
915 360 871 475 1157 475 1184 0 39 -33 23 -105 -51z"/>
</g>
</svg>
