<?xml version="1.0" encoding="UTF-8" standalone="no"?>
<!-- Created with Inkscape (http://www.inkscape.org/) -->

<svg
   xmlns:svg="http://www.w3.org/2000/svg"
   xmlns="http://www.w3.org/2000/svg"
   version="1.1"
   width="749"
   height="746"
   id="svg2">
  <defs
     id="defs4" />
  <g
     transform="matrix(0.99601064,0,0,0.99866131,284.07647,-32.604191)"
     id="layer1">
    <rect
       width="752"
       height="747"
       x="-285.21429"
       y="32.647903"
       id="rect3640"
       style="fill:#009140;fill-opacity:0;stroke:none" />
    <path
       d="M 181.75,230.375 C 102.88895,231.09692 32.618,308.93792 53.78125,411.9375 69.9141,490.45459 153.74936,592.55968 300,691.53125 446.25064,592.55968 530.0859,490.45459 546.21875,411.9375 567.382,308.93792 497.11105,231.09692 418.25,230.375 377.71967,229.75518 327.02148,251.12563 300,302.75 272.97852,251.12563 222.28033,229.75518 181.75,230.375 z"
       transform="translate(-285.21429,33.647896)"
       id="path2830"
       style="fill:#ffffff;stroke:none" />
    <path
       d="M 241.5,258.875 214.65625,542.0625 310,473.5 293.5625,599.9375 263.9375,589.5625 299.28125,671.71875 358.5625,606 l -29.625,0 50.34375,-227.15625 -114.28125,82.5 30.28125,-140.6875 -6.34375,-12.125 C 276.9855,285.69703 259.95583,269.49145 241.5,258.875 z"
       transform="translate(-285.21429,33.647896)"
       id="path3611"
       style="fill:#009140;fill-opacity:1;stroke:none" />
    <path
       d="m 574,38.34375 0,65 -65,0 0,65 65,0 0,65 65,0 0,-65 65,0 0,-65 -65,0 0,-65 -65,0 z"
       transform="translate(-285.21429,33.647896)"
       id="rect3634"
       style="fill:#ffffff;fill-opacity:1;stroke:none" />
  </g>
</svg>
